<!-- Generator: Adobe Illustrator 19.1.0, SVG Export Plug-In  -->
<svg version="1.1"
	 xmlns="http://www.w3.org/2000/svg" xmlns:xlink="http://www.w3.org/1999/xlink" xmlns:a="http://ns.adobe.com/AdobeSVGViewerExtensions/3.0/"
	 x="0px" y="0px" width="37.9px" height="34.1px" viewBox="0 0 37.9 34.1" enable-background="new 0 0 37.9 34.1"
	 xml:space="preserve">
<defs>
</defs>
<g id="XMLID_18_">
	<g id="XMLID_34_">
		<path id="XMLID_35_" fill="#FFFFFF" d="M33.2,0H4.7C2.1,0,0,2.1,0,4.7v18.1c0,2.6,2.1,4.7,4.7,4.7h13.2v4.5h-6.6
			c-0.6,0-1.1,0.5-1.1,1.1c0,0.6,0.5,1.1,1.1,1.1h15.3c0.6,0,1.1-0.5,1.1-1.1c0-0.6-0.5-1.1-1.1-1.1H20v-4.5h13.2
			c2.6,0,4.7-2.1,4.7-4.7V4.7C37.9,2.1,35.8,0,33.2,0z M4.7,2.1h28.6c1.4,0,2.6,1.1,2.6,2.6v15.1H2.1V4.7C2.1,3.3,3.3,2.1,4.7,2.1z
			 M33.2,25.3H4.7c-1.4,0-2.6-1.1-2.6-2.6v-0.9h33.7v0.9C35.8,24.2,34.7,25.3,33.2,25.3z"/>
	</g>
	<g id="XMLID_33_">
	</g>
	<g id="XMLID_32_">
	</g>
	<g id="XMLID_31_">
	</g>
	<g id="XMLID_30_">
	</g>
	<g id="XMLID_29_">
	</g>
	<g id="XMLID_28_">
	</g>
	<g id="XMLID_27_">
	</g>
	<g id="XMLID_26_">
	</g>
	<g id="XMLID_25_">
	</g>
	<g id="XMLID_24_">
	</g>
	<g id="XMLID_23_">
	</g>
	<g id="XMLID_22_">
	</g>
	<g id="XMLID_21_">
	</g>
	<g id="XMLID_20_">
	</g>
	<g id="XMLID_19_">
	</g>
</g>
<path id="XMLID_17_" fill="none" stroke="#FFFFFF" stroke-width="2" stroke-linecap="round" stroke-linejoin="round" stroke-miterlimit="10" d="
	M13.9,5.4"/>
<g id="XMLID_9_">
	<g id="XMLID_11_">
		
			<line id="XMLID_16_" fill="none" stroke="#FFFFFF" stroke-width="2" stroke-linecap="round" stroke-linejoin="round" x1="24.7" y1="5.2" x2="13.2" y2="16.7"/>
		<g id="XMLID_14_">
			<polygon id="XMLID_15_" fill="#FFFFFF" points="20.6,5.5 24.4,5.5 24.4,9.4 26,7.7 26,3.9 22.2,3.9 			"/>
		</g>
		<g id="XMLID_12_">
			<polygon id="XMLID_13_" fill="#FFFFFF" points="13.5,12.6 13.5,16.4 17.4,16.4 15.7,18 11.9,18 11.9,14.2 			"/>
		</g>
	</g>
</g>
<g id="XMLID_1_">
	<g id="XMLID_3_">
		
			<line id="XMLID_8_" fill="none" stroke="#FFFFFF" stroke-width="2" stroke-linecap="round" stroke-linejoin="round" x1="24.7" y1="16.7" x2="13.2" y2="5.2"/>
		<g id="XMLID_6_">
			<polygon id="XMLID_7_" fill="#FFFFFF" points="24.4,12.6 24.4,16.4 20.6,16.4 22.2,18 26,18 26,14.2 			"/>
		</g>
		<g id="XMLID_4_">
			<polygon id="XMLID_5_" fill="#FFFFFF" points="17.4,5.5 13.5,5.5 13.5,9.4 11.9,7.7 11.9,3.9 15.7,3.9 			"/>
		</g>
	</g>
</g>
</svg>
