<!-- Generator: Adobe Illustrator 19.1.0, SVG Export Plug-In  -->
<svg version="1.1"
	 xmlns="http://www.w3.org/2000/svg" xmlns:xlink="http://www.w3.org/1999/xlink" xmlns:a="http://ns.adobe.com/AdobeSVGViewerExtensions/3.0/"
	 x="0px" y="0px" width="39.5px" height="29.3px" viewBox="0 0 39.5 29.3" enable-background="new 0 0 39.5 29.3"
	 xml:space="preserve">
<defs>
</defs>
<g id="XMLID_1_">
	<g id="XMLID_3_">
		<path id="XMLID_4_" fill="#ffffff" d="M16.2,4.6c-5.2,2.5-7.8,5.5-7.8,9c2.2,0.3,4.1,1.2,5.5,2.7c1.4,1.5,2.2,3.3,2.2,5.4
			c0,2.2-0.7,4-2.1,5.5c-1.4,1.5-3.2,2.2-5.3,2.2c-2.4,0-4.4-1-6.1-2.9c-1.7-1.9-2.6-4.3-2.6-7C0,11.1,4.6,4.7,13.8,0L16.2,4.6z
			 M39.5,4.6c-5.2,2.5-7.7,5.5-7.7,9c2.2,0.3,4,1.2,5.5,2.7c1.4,1.5,2.2,3.3,2.2,5.4c0,2.2-0.7,4-2.1,5.5s-3.2,2.2-5.3,2.2
			c-2.4,0-4.4-1-6.2-2.9c-1.7-1.9-2.6-4.3-2.6-7c0-8.3,4.6-14.7,13.8-19.4L39.5,4.6z"/>
	</g>
</g>
</svg>
