<!-- Generator: Adobe Illustrator 19.1.0, SVG Export Plug-In  -->
<svg version="1.1"
	 xmlns="http://www.w3.org/2000/svg" xmlns:xlink="http://www.w3.org/1999/xlink" xmlns:a="http://ns.adobe.com/AdobeSVGViewerExtensions/3.0/"
	 x="0px" y="0px" width="14.3px" height="19px" viewBox="0 0 14.3 19" enable-background="new 0 0 14.3 19" xml:space="preserve">
<defs>
</defs>
<path id="XMLID_1_" fill="#FFFFFF" d="M12.6,11.2l-4.5,4.5V1c0-0.5-0.4-1-1-1s-1,0.4-1,1v14.7l-4.5-4.5C1.5,11,1.2,10.9,1,10.9
	c-0.3,0-0.5,0.1-0.7,0.3c-0.4,0.4-0.4,1,0,1.4l6.2,6.2C6.6,18.9,6.9,19,7.1,19c0.3,0,0.5-0.1,0.7-0.3l6.2-6.2c0.4-0.4,0.4-1,0-1.4
	C13.6,10.8,13,10.8,12.6,11.2z"/>
</svg>
