<!-- Generator: Adobe Illustrator 19.1.0, SVG Export Plug-In  -->
<svg version="1.1"
	 xmlns="http://www.w3.org/2000/svg" xmlns:xlink="http://www.w3.org/1999/xlink" xmlns:a="http://ns.adobe.com/AdobeSVGViewerExtensions/3.0/"
	 x="0px" y="0px" width="25.1px" height="25.2px" viewBox="0 0 25.1 25.2" enable-background="new 0 0 25.1 25.2"
	 xml:space="preserve">
<defs>
</defs>
<g id="XMLID_1_">
	<g id="XMLID_17_">
		<g id="XMLID_18_">
			<path id="XMLID_21_" d="M19.9,15.6c-0.5-0.5-1.1-0.8-1.8-0.8c-0.7,0-1.3,0.3-1.8,0.8l-1.7,1.7
				c-0.1-0.1-0.3-0.1-0.4-0.2c-0.2-0.1-0.4-0.2-0.5-0.3c-1.6-1-3-2.3-4.4-4c-0.7-0.8-1.1-1.5-1.4-2.3c0.4-0.4,0.8-0.8,1.2-1.2
				C9.2,9.2,9.4,9,9.5,8.9c1.1-1.1,1.1-2.6,0-3.7L8.1,3.7C7.9,3.6,7.7,3.4,7.6,3.2c-0.3-0.3-0.7-0.7-1-1C6.1,1.7,5.4,1.5,4.8,1.5
				S3.5,1.7,3,2.2c0,0,0,0,0,0L1.2,4.1C0.5,4.7,0.1,5.6,0,6.5c-0.1,1.6,0.3,3,0.7,3.9c0.9,2.3,2.1,4.5,4.1,6.8
				c2.3,2.8,5.1,5,8.3,6.5c1.2,0.6,2.9,1.3,4.7,1.4c0.1,0,0.2,0,0.3,0c1.2,0,2.3-0.4,3.1-1.3c0,0,0,0,0,0c0.3-0.3,0.6-0.6,0.9-1
				c0.2-0.2,0.5-0.4,0.7-0.7c0.5-0.5,0.8-1.2,0.8-1.8c0-0.7-0.3-1.3-0.8-1.8L19.9,15.6z M21.8,21.2C21.8,21.2,21.8,21.2,21.8,21.2
				c-0.2,0.2-0.4,0.4-0.6,0.6c-0.3,0.3-0.7,0.7-1,1.1c-0.5,0.6-1.2,0.8-2,0.8c-0.1,0-0.2,0-0.2,0c-1.6-0.1-3-0.7-4.1-1.2
				c-3-1.5-5.6-3.5-7.8-6.1c-1.8-2.2-3-4.2-3.8-6.4C1.6,8.7,1.4,7.6,1.5,6.7C1.5,6,1.7,5.5,2.2,5.1L4,3.3C4.3,3,4.5,2.9,4.8,2.9
				c0.3,0,0.6,0.2,0.8,0.4c0,0,0,0,0,0c0.3,0.3,0.6,0.6,1,1c0.2,0.2,0.3,0.3,0.5,0.5l1.4,1.4c0.6,0.6,0.6,1.1,0,1.6
				C8.4,8,8.2,8.1,8,8.3C7.6,8.8,7.2,9.2,6.7,9.6c0,0,0,0,0,0c-0.5,0.5-0.4,0.9-0.3,1.2c0,0,0,0,0,0c0.4,0.9,0.9,1.8,1.7,2.8l0,0
				c1.5,1.8,3,3.2,4.7,4.3c0.2,0.1,0.4,0.2,0.7,0.4c0.2,0.1,0.4,0.2,0.5,0.3c0,0,0,0,0.1,0c0.2,0.1,0.4,0.1,0.5,0.1
				c0.4,0,0.7-0.3,0.8-0.4l1.8-1.8c0.2-0.2,0.5-0.4,0.8-0.4c0.3,0,0.6,0.2,0.8,0.4c0,0,0,0,0,0l2.9,2.9
				C22.3,20.1,22.3,20.6,21.8,21.2z"/>
			<path id="XMLID_20_" d="M13.6,6c1.4,0.2,2.7,0.9,3.7,1.9c1,1,1.7,2.3,1.9,3.7c0.1,0.4,0.4,0.6,0.7,0.6
				c0,0,0.1,0,0.1,0c0.4-0.1,0.7-0.4,0.6-0.8c-0.3-1.7-1.1-3.2-2.3-4.4c-1.2-1.2-2.8-2-4.4-2.3c-0.4-0.1-0.8,0.2-0.8,0.6
				S13.2,5.9,13.6,6z"/>
			<path id="XMLID_19_" d="M25.1,11.1c-0.5-2.8-1.8-5.3-3.8-7.3S16.8,0.5,14,0c-0.4-0.1-0.8,0.2-0.8,0.6
				c-0.1,0.4,0.2,0.8,0.6,0.8c2.5,0.4,4.7,1.6,6.5,3.4c1.8,1.8,3,4.1,3.4,6.5c0.1,0.4,0.4,0.6,0.7,0.6c0,0,0.1,0,0.1,0
				C24.9,11.9,25.2,11.5,25.1,11.1z"/>
		</g>
	</g>
</g>
</svg>
