<!-- Generator: Adobe Illustrator 19.1.0, SVG Export Plug-In  -->
<svg version="1.1"
	 xmlns="http://www.w3.org/2000/svg" xmlns:xlink="http://www.w3.org/1999/xlink" xmlns:a="http://ns.adobe.com/AdobeSVGViewerExtensions/3.0/"
	 x="0px" y="0px" width="28.6px" height="25.7px" viewBox="0 0 28.6 25.7" enable-background="new 0 0 28.6 25.7"
	 xml:space="preserve">
<defs>
</defs>
<g id="XMLID_19_">
	<g id="XMLID_35_">
		<g id="XMLID_36_">
			<path id="XMLID_37_" d="M25.1,0H3.5C1.6,0,0,1.6,0,3.5v13.7c0,1.9,1.6,3.5,3.5,3.5h10v3.4h-5c-0.4,0-0.8,0.4-0.8,0.8
				c0,0.4,0.4,0.8,0.8,0.8h11.5c0.4,0,0.8-0.4,0.8-0.8c0-0.4-0.4-0.8-0.8-0.8h-5v-3.4h10c1.9,0,3.5-1.6,3.5-3.5V3.5
				C28.6,1.6,27,0,25.1,0z M3.5,1.6h21.5c1.1,0,1.9,0.9,1.9,1.9v11.4H1.6V3.5C1.6,2.5,2.5,1.6,3.5,1.6z M25.1,19.1H3.5
				c-1.1,0-1.9-0.9-1.9-1.9v-0.6H27v0.6C27,18.2,26.1,19.1,25.1,19.1z"/>
		</g>
	</g>
</g>
<g id="XMLID_10_">
	<g id="XMLID_17_">
		<path id="XMLID_18_" d="M9.9,13.4c-0.2,0-0.4-0.1-0.5-0.2c-0.3-0.3-0.3-0.8,0-1.1l8.7-8.7c0.3-0.3,0.8-0.3,1.1,0
			c0.3,0.3,0.3,0.8,0,1.1l-8.7,8.7C10.3,13.3,10.1,13.4,9.9,13.4z"/>
	</g>
	<g id="XMLID_14_">
		<g id="XMLID_15_">
			<polygon id="XMLID_16_" points="15.5,4.2 18.4,4.2 18.4,7.1 19.6,5.8 19.6,2.9 16.7,2.9 			"/>
		</g>
	</g>
	<g id="XMLID_11_">
		<g id="XMLID_12_">
			<polygon id="XMLID_13_" points="10.2,9.5 10.2,12.4 13.1,12.4 11.9,13.6 9,13.6 9,10.7 			"/>
		</g>
	</g>
</g>
<g id="XMLID_1_">
	<g id="XMLID_8_">
		<path id="XMLID_9_" d="M18.6,13.4c-0.2,0-0.4-0.1-0.5-0.2L9.4,4.5c-0.3-0.3-0.3-0.8,0-1.1s0.8-0.3,1.1,0l8.7,8.7
			c0.3,0.3,0.3,0.8,0,1.1C19,13.3,18.8,13.4,18.6,13.4z"/>
	</g>
	<g id="XMLID_5_">
		<g id="XMLID_6_">
			<polygon id="XMLID_7_" points="18.4,9.5 18.4,12.4 15.5,12.4 16.7,13.6 19.6,13.6 19.6,10.7 			"/>
		</g>
	</g>
	<g id="XMLID_2_">
		<g id="XMLID_3_">
			<polygon id="XMLID_4_" points="13.1,4.2 10.2,4.2 10.2,7.1 9,5.8 9,2.9 11.9,2.9 			"/>
		</g>
	</g>
</g>
</svg>
