<!-- Generator: Adobe Illustrator 19.1.0, SVG Export Plug-In  -->
<svg version="1.1"
	 xmlns="http://www.w3.org/2000/svg" xmlns:xlink="http://www.w3.org/1999/xlink" xmlns:a="http://ns.adobe.com/AdobeSVGViewerExtensions/3.0/"
	 x="0px" y="0px" width="28.4px" height="21px" viewBox="0 0 28.4 21" enable-background="new 0 0 28.4 21" xml:space="preserve">
<defs>
</defs>
<g id="XMLID_1_">
	<g id="XMLID_3_">
		<path id="XMLID_4_" d="M11.7,3.3c-3.7,1.8-5.6,4-5.6,6.4c1.6,0.2,2.9,0.8,4,1.9c1,1.1,1.5,2.4,1.5,3.9c0,1.5-0.5,2.9-1.5,3.9
			C9,20.5,7.8,21,6.2,21c-1.7,0-3.2-0.7-4.4-2.1c-1.2-1.4-1.8-3.1-1.8-5C0,8,3.3,3.3,9.9,0L11.7,3.3z M28.4,3.3
			c-3.7,1.8-5.6,4-5.6,6.4c1.6,0.2,2.9,0.8,3.9,1.9c1,1.1,1.5,2.4,1.5,3.9c0,1.5-0.5,2.9-1.5,3.9c-1,1.1-2.3,1.6-3.8,1.6
			c-1.7,0-3.2-0.7-4.4-2.1c-1.2-1.4-1.9-3.1-1.9-5C16.7,8,20,3.3,26.6,0L28.4,3.3z"/>
	</g>
</g>
</svg>
