<!-- Generator: Adobe Illustrator 19.1.0, SVG Export Plug-In  -->
<svg version="1.1"
	 xmlns="http://www.w3.org/2000/svg" xmlns:xlink="http://www.w3.org/1999/xlink" xmlns:a="http://ns.adobe.com/AdobeSVGViewerExtensions/3.0/"
	 x="0px" y="0px" width="32.5px" height="32.5px" viewBox="0 0 32.5 32.5" enable-background="new 0 0 32.5 32.5"
	 xml:space="preserve">
<defs>
</defs>
<g id="XMLID_1_">
	<g id="XMLID_17_">
		<g id="XMLID_18_">
			<path id="XMLID_22_" d="M30.9,12.9l-2.3-0.4c-0.2-0.8-0.5-1.5-0.9-2.2L29,8.4c0.6-0.8,0.5-1.9-0.2-2.6l-2-2
				c-0.4-0.4-0.9-0.6-1.4-0.6c-0.4,0-0.8,0.1-1.2,0.4l-1.9,1.3c-0.7-0.4-1.5-0.7-2.3-0.9l-0.4-2.3c-0.2-1-1-1.7-2-1.7h-2.9
				c-1,0-1.8,0.7-2,1.7L12.4,4c-0.8,0.2-1.5,0.6-2.2,0.9L8.3,3.6C8,3.3,7.6,3.2,7.2,3.2c-0.5,0-1,0.2-1.4,0.6l-2,2
				C3,6.5,2.9,7.6,3.5,8.4l1.4,1.9c-0.4,0.7-0.7,1.5-0.9,2.2l-2.3,0.4c-1,0.2-1.7,1-1.7,2v2.9c0,1,0.7,1.8,1.7,2L4,20.2
				c0.2,0.8,0.6,1.5,0.9,2.2l-1.3,1.9C3,25,3.1,26.1,3.8,26.8l2,2c0.4,0.4,0.9,0.6,1.4,0.6c0.4,0,0.8-0.1,1.2-0.4l1.9-1.4
				c0.7,0.4,1.4,0.7,2.1,0.9l0.4,2.3c0.2,1,1,1.7,2,1.7h2.9c1,0,1.8-0.7,2-1.7l0.4-2.3c0.8-0.2,1.5-0.5,2.2-0.9l1.9,1.3
				c0.3,0.2,0.7,0.4,1.2,0.4l0,0c0.5,0,1-0.2,1.4-0.6l2-2c0.7-0.7,0.8-1.8,0.2-2.6l-1.3-1.9c0.4-0.7,0.7-1.5,0.9-2.2l2.3-0.4
				c1-0.2,1.7-1,1.7-2v-2.9C32.6,13.9,31.9,13,30.9,12.9z M30.7,17.7c0,0.1-0.1,0.2-0.1,0.2l-2.9,0.5c-0.4,0.1-0.6,0.3-0.7,0.7
				c-0.3,1-0.7,2-1.2,2.8c-0.2,0.3-0.2,0.7,0,1l1.7,2.4c0,0.1,0,0.2,0,0.2l-2,2c0,0-0.1,0.1-0.1,0.1c0,0-0.1,0-0.1,0l-2.4-1.7
				c-0.3-0.2-0.7-0.2-1,0C21,26.3,20,26.7,19,27c-0.4,0.1-0.6,0.4-0.7,0.7l-0.5,2.9c0,0.1-0.1,0.1-0.2,0.1h-2.9
				c-0.1,0-0.2-0.1-0.2-0.1l-0.5-2.9c-0.1-0.4-0.3-0.6-0.7-0.7c-1-0.3-1.9-0.6-2.8-1.1c-0.1-0.1-0.3-0.1-0.5-0.1
				c-0.2,0-0.4,0.1-0.5,0.2l-2.4,1.7c0,0-0.1,0-0.1,0c0,0-0.1,0-0.1-0.1l-2-2c-0.1-0.1-0.1-0.2,0-0.2L6.8,23c0.2-0.3,0.2-0.7,0-1
				c-0.5-0.9-0.9-1.8-1.2-2.8c-0.1-0.3-0.4-0.6-0.7-0.7L2,17.9c-0.1,0-0.1-0.1-0.1-0.2v-2.9c0-0.1,0.1-0.2,0.1-0.2l2.8-0.5
				c0.4-0.1,0.7-0.3,0.7-0.7c0.3-1,0.6-2,1.2-2.9c0.2-0.3,0.2-0.7,0-1L5,7.3c0-0.1,0-0.2,0-0.2l2-2C7.1,5,7.1,5,7.2,5
				c0,0,0.1,0,0.1,0l2.3,1.7c0.3,0.2,0.7,0.2,1,0c0.9-0.5,1.8-0.9,2.8-1.2c0.3-0.1,0.6-0.4,0.7-0.7L14.6,2c0-0.1,0.1-0.1,0.2-0.1
				h2.9c0.1,0,0.2,0.1,0.2,0.1l0.5,2.8c0.1,0.4,0.3,0.7,0.7,0.7c1,0.3,2,0.7,2.9,1.2c0.3,0.2,0.7,0.2,1,0L25.3,5c0,0,0.1,0,0.1,0
				c0,0,0.1,0,0.1,0.1l2,2c0.1,0.1,0.1,0.2,0,0.2l-1.7,2.4c-0.2,0.3-0.2,0.7,0,1c0.5,0.9,0.9,1.8,1.2,2.8c0.1,0.4,0.4,0.6,0.7,0.7
				l2.9,0.5c0.1,0,0.1,0.1,0.1,0.2L30.7,17.7L30.7,17.7z"/>
			<path id="XMLID_19_" fill="#F1F0EA" d="M16.3,9.2c-3.9,0-7,3.1-7,7s3.1,7,7,7s7-3.1,7-7S20.2,9.2,16.3,9.2z M16.3,21.5
				c-2.9,0-5.2-2.3-5.2-5.2s2.3-5.2,5.2-5.2s5.2,2.3,5.2,5.2S19.1,21.5,16.3,21.5z"/>
		</g>
	</g>
</g>
</svg>
