<!-- Generator: Adobe Illustrator 19.1.0, SVG Export Plug-In  -->
<svg version="1.1"
	 xmlns="http://www.w3.org/2000/svg" xmlns:xlink="http://www.w3.org/1999/xlink" xmlns:a="http://ns.adobe.com/AdobeSVGViewerExtensions/3.0/"
	 x="0px" y="0px" width="24px" height="24.7px" viewBox="0 0 24 24.7" enable-background="new 0 0 24 24.7" xml:space="preserve">
<defs>
</defs>
<g id="XMLID_1_">
	<g id="XMLID_17_">
		<path id="XMLID_18_" d="M23.3,7.9c0.1-0.3,0.2-0.6,0.2-1c0-0.7-0.1-1.7-1.2-2.7c0.1-0.5,0.1-1.2-0.4-2c-0.6-1-1.6-1.7-3.2-2
			c-1.1-0.2-2.4-0.3-4.1-0.1C11.2,0,7.9,0.4,7.7,0.4L6.5,0.6C6.2,0.3,5.8,0.2,5.3,0.2H2.1C1,0.2,0,1.2,0,2.3v8.4
			c0,1.2,1,2.1,2.1,2.1h3.1c0.4,0,0.7-0.1,1-0.3c0.2,0.5,0.5,1,1,1.5c0,0,0.1,0.1,0.1,0.1c1.6,1.2,3.5,5.7,4.2,7.6
			c-0.1,0.6-0.1,1.8,0.4,2.5c0.3,0.3,0.6,0.5,1,0.5c0.4,0,1.8-0.1,2.6-1.3c0.8-1.1,0.9-2.8,0.1-5c-0.6-1.8-0.7-2.7-0.6-3
			c0.3,0.1,0.6,0.1,0.8,0.2h0c0,0,1.2,0.3,2.5,0.3c1.9,0.1,3.3-0.2,4.1-1c1.1-1,1-2.3,0.7-3.2c0.3-0.4,0.6-1,0.7-1.8
			C24,9.2,23.8,8.6,23.3,7.9z M5.3,11.5H2.1c-0.4,0-0.8-0.3-0.8-0.8V2.4c0-0.4,0.3-0.8,0.8-0.8h3.1c0.4,0,0.8,0.3,0.8,0.8v8.4
			C6.1,11.2,5.7,11.5,5.3,11.5z M21.9,12c0,0,0.2,0.3,0.2,0.7c0.1,0.5-0.1,0.9-0.4,1.2c-1,0.9-3.8,0.7-5.4,0.3c0,0,0,0-0.1,0
			c-0.3-0.1-0.6-0.1-0.9-0.2c-0.3-0.1-0.8-0.1-1.1,0.2c-0.7,0.6-0.6,2,0.3,4.6c0.6,1.7,0.6,3,0.1,3.8c-0.4,0.6-1.2,0.7-1.5,0.7
			c-0.1-0.2-0.2-0.9-0.1-1.5c0-0.1,0-0.2,0-0.3c-0.1-0.3-2.4-6.5-4.7-8.3c-0.6-0.7-0.9-1.4-1-1.8c0.1-0.2,0.1-0.4,0.1-0.6V2.4
			c0-0.2,0-0.3,0-0.5l0.5-0.1h0c0,0,3.4-0.4,6.7-0.4c0,0,0,0,0.1,0c1.6-0.1,2.8-0.1,3.8,0.1c1.2,0.2,1.9,0.7,2.3,1.3
			c0.4,0.6,0.2,1.3,0.1,1.4c-0.1,0.3,0,0.6,0.2,0.8c1.5,1.1,0.8,2.5,0.7,2.6c-0.2,0.3-0.1,0.6,0.1,0.8c0.4,0.5,0.7,0.9,0.6,1.4
			c0,0.7-0.5,1.2-0.6,1.2C21.8,11.3,21.7,11.7,21.9,12z"/>
	</g>
</g>
</svg>
