<!-- Generator: Adobe Illustrator 19.1.0, SVG Export Plug-In  -->
<svg version="1.1"
	 xmlns="http://www.w3.org/2000/svg" xmlns:xlink="http://www.w3.org/1999/xlink" xmlns:a="http://ns.adobe.com/AdobeSVGViewerExtensions/3.0/"
	 x="0px" y="0px" width="14.4px" height="14.4px" viewBox="0 0 14.4 14.4" enable-background="new 0 0 14.4 14.4"
	 xml:space="preserve">
<defs>
</defs>
<path id="XMLID_1_" d="M13.6,0H0.8C0.3,0,0,0.3,0,0.8v12.9c0,0.4,0.3,0.8,0.8,0.8h12.9c0.4,0,0.8-0.3,0.8-0.8V0.8
	C14.4,0.3,14.1,0,13.6,0z M4,12.9H1.7V5.3H4L4,12.9L4,12.9z M2.9,4.2c-0.8,0-1.4-0.6-1.4-1.4c0-0.8,0.6-1.4,1.4-1.4
	c0.8,0,1.4,0.6,1.4,1.4C4.2,3.6,3.6,4.2,2.9,4.2z M12.9,12.9h-2.4V9.2c0-0.9,0-2-1.2-2c-1.2,0-1.4,1-1.4,2v3.8H5.5V5.3h2.3v1h0
	c0.3-0.6,1.1-1.2,2.2-1.2c2.4,0,2.8,1.6,2.8,3.6L12.9,12.9L12.9,12.9z"/>
</svg>
