<!-- Generator: Adobe Illustrator 19.1.0, SVG Export Plug-In  -->
<svg version="1.1"
	 xmlns="http://www.w3.org/2000/svg" xmlns:xlink="http://www.w3.org/1999/xlink" xmlns:a="http://ns.adobe.com/AdobeSVGViewerExtensions/3.0/"
	 x="0px" y="0px" width="13px" height="24px" viewBox="0 0 13 24" enable-background="new 0 0 13 24" xml:space="preserve">
<defs>
</defs>
<g id="XMLID_1_">
	<path id="XMLID_2_" d="M8.3,24H4.1c-0.3,0-0.6-0.3-0.6-0.6v-9.9H0.6C0.3,13.6,0,13.3,0,13V8.9
		c0-0.3,0.3-0.6,0.6-0.6h2.9V5.9C3.5,2.3,5.7,0,9.3,0c1.6,0,2.9,0.1,3.2,0.2c0.3,0,0.5,0.3,0.5,0.6v3.6c0,0.3-0.3,0.6-0.6,0.6
		l-2.1,0c-1.2,0-1.4,0.4-1.4,1.4v2h3.4c0.2,0,0.3,0.1,0.4,0.2c0.1,0.1,0.2,0.3,0.1,0.5l-0.5,4.1c0,0.3-0.3,0.5-0.6,0.5H8.9v9.9
		C8.9,23.7,8.6,24,8.3,24z M4.7,22.9h3V13c0-0.3,0.3-0.6,0.6-0.6h3l0.4-2.9H8.3C8,9.5,7.7,9.3,7.7,8.9V6.3c0-1.1,0.3-2.6,2.6-2.6
		l1.6,0V1.3c-0.6-0.1-1.5-0.1-2.6-0.1c-2.9,0-4.6,1.8-4.6,4.8v3c0,0.3-0.3,0.6-0.6,0.6H1.1v2.9h2.9c0.3,0,0.6,0.3,0.6,0.6L4.7,22.9
		L4.7,22.9z"/>
</g>
</svg>
