<!-- Generator: Adobe Illustrator 19.1.0, SVG Export Plug-In  -->
<svg version="1.1"
	 xmlns="http://www.w3.org/2000/svg" xmlns:xlink="http://www.w3.org/1999/xlink" xmlns:a="http://ns.adobe.com/AdobeSVGViewerExtensions/3.0/"
	 x="0px" y="0px" width="24px" height="19.6px" viewBox="0 0 24 19.6" enable-background="new 0 0 24 19.6" xml:space="preserve">
<defs>
</defs>
<g id="XMLID_1_">
	<g id="twitter_2_">
		<g id="XMLID_2_">
			<path id="XMLID_3_" d="M23.8,2.3c-0.2-0.1-0.4-0.1-0.6,0c-0.1,0.1-0.3,0.2-0.5,0.3c0.7-0.9,0.7-1.5,0.7-1.7
				c0-0.2-0.1-0.4-0.3-0.5c-0.2-0.1-0.4-0.1-0.5,0.1c-1,0.7-2,0.9-2.6,0.9c-1-0.9-2.2-1.4-3.5-1.4c-2.8,0-5.2,2.3-5.2,5.2
				c0,0.2,0,0.4,0,0.6C6.5,5.7,2.6,1.2,2.6,1.1C2.5,1,2.3,0.9,2.1,0.9C2,1,1.8,1.1,1.7,1.2C0.5,3.3,1,5.2,1.8,6.6
				c-0.2-0.1-0.3-0.1-0.5,0C1.2,6.7,1,6.9,1,7.1c0,2.2,1,3.5,2,4.2c-0.1,0-0.1,0.1-0.2,0.1c-0.1,0.1-0.2,0.3-0.1,0.5
				C3.4,14.2,5,15,6.1,15.4c-1.3,0.9-2.9,1.1-4.2,1.1c-0.8,0-1.3-0.1-1.3-0.1c-0.2,0-0.5,0.1-0.6,0.3c-0.1,0.2,0,0.5,0.2,0.7
				c2.5,1.9,5.5,2.3,7.5,2.3c1.6,0,2.8-0.2,2.8-0.3c10.6-2.5,11-12,11-13.8c2-1.8,2.3-2.5,2.4-2.7C24,2.7,24,2.4,23.8,2.3z M20.7,5
				c-0.1,0.1-0.2,0.3-0.2,0.4c0,0.1,0.6,10.4-10.2,12.9c0,0-1.1,0.2-2.6,0.2c-1.4,0-3.3-0.2-5.1-1c1.6-0.1,3.6-0.6,5.1-2.2
				c0.1-0.2,0.2-0.4,0.1-0.6c-0.1-0.2-0.3-0.3-0.5-0.3c-0.1,0-2.2,0-3.3-2c0.5,0,0.9-0.1,1.3-0.2c0.2-0.1,0.3-0.3,0.3-0.6
				c0-0.2-0.2-0.4-0.4-0.5c-0.1,0-2.6-0.6-3-3.2C2.6,8.2,3,8.3,3.5,8.2c0.2,0,0.4-0.2,0.4-0.4c0.1-0.2,0-0.4-0.2-0.6
				C3.7,7.2,1.3,5.1,2.3,2.4c1.4,1.4,5.1,4.7,9.6,4.4c0.2,0,0.3-0.1,0.4-0.2c0.1-0.1,0.1-0.3,0.1-0.5c-0.1-0.3-0.1-0.7-0.1-1
				c0-2.2,1.8-4.1,4.1-4.1c1.1,0,2.1,0.4,2.9,1.2c0.1,0.1,0.2,0.2,0.4,0.2l0.1,0c0.4,0,1,0,1.7-0.3c-0.2,0.2-0.5,0.5-0.9,0.8
				c-0.2,0.1-0.3,0.4-0.2,0.6C20.5,3.9,20.7,4,20.9,4c0.1,0,0.5,0,1-0.1C21.6,4.2,21.2,4.5,20.7,5z"/>
		</g>
	</g>
</g>
</svg>
