<!-- Generator: Adobe Illustrator 19.1.0, SVG Export Plug-In  -->
<svg version="1.1"
	 xmlns="http://www.w3.org/2000/svg" xmlns:xlink="http://www.w3.org/1999/xlink" xmlns:a="http://ns.adobe.com/AdobeSVGViewerExtensions/3.0/"
	 x="0px" y="0px" width="14.4px" height="14.4px" viewBox="0 0 14.4 14.4" enable-background="new 0 0 14.4 14.4"
	 xml:space="preserve">
<defs>
</defs>
<g id="post-instagram_1_">
	<path id="XMLID_1_" d="M13,0H1.4C0.6,0,0,0.6,0,1.4V13c0,0.8,0.6,1.4,1.4,1.4H13c0.8,0,1.4-0.6,1.4-1.4V1.4C14.4,0.6,13.8,0,13,0z
		 M7.2,4.3c1.6,0,2.9,1.3,2.9,2.9s-1.3,2.9-2.9,2.9S4.3,8.8,4.3,7.2S5.6,4.3,7.2,4.3z M1.8,13c-0.2,0-0.4-0.1-0.4-0.4V6.5H3
		C2.9,6.7,2.9,7,2.9,7.2c0,2.4,1.9,4.3,4.3,4.3s4.3-1.9,4.3-4.3c0-0.2,0-0.5-0.1-0.7H13v6.1c0,0.2-0.1,0.4-0.4,0.4H1.8z M13,3.2
		c0,0.2-0.1,0.4-0.4,0.4h-1.4c-0.2,0-0.4-0.1-0.4-0.4V1.8c0-0.2,0.1-0.4,0.4-0.4h1.4c0.2,0,0.4,0.1,0.4,0.4V3.2z"/>
</g>
</svg>
