<!-- Generator: Adobe Illustrator 19.1.0, SVG Export Plug-In  -->
<svg version="1.1"
	 xmlns="http://www.w3.org/2000/svg" xmlns:xlink="http://www.w3.org/1999/xlink" xmlns:a="http://ns.adobe.com/AdobeSVGViewerExtensions/3.0/"
	 x="0px" y="0px" width="16.5px" height="13.4px" viewBox="0 0 16.5 13.4" enable-background="new 0 0 16.5 13.4"
	 xml:space="preserve">
<defs>
</defs>
<g id="XMLID_1_">
	<path id="XMLID_2_" d="M16.5,1.6c-0.6,0.3-1.3,0.5-1.9,0.5c0.7-0.4,1.2-1.1,1.5-1.9c-0.7,0.4-1.4,0.7-2.2,0.8
		C13.3,0.4,12.4,0,11.4,0C9.6,0,8.1,1.5,8.1,3.4c0,0.3,0,0.5,0.1,0.8C5.3,4,2.8,2.7,1.2,0.6C0.9,1.1,0.7,1.7,0.7,2.3
		c0,1.2,0.6,2.2,1.5,2.8C1.6,5.1,1.1,5,0.7,4.7v0c0,1.6,1.2,3,2.7,3.3C3.1,8.2,2.8,8.2,2.5,8.2c-0.2,0-0.4,0-0.6-0.1
		c0.4,1.3,1.7,2.3,3.2,2.4C3.9,11.4,2.4,12,0.8,12c-0.3,0-0.5,0-0.8,0c1.5,1,3.3,1.5,5.2,1.5c6.2,0,9.7-5.2,9.7-9.6l0-0.4
		C15.5,2.9,16.1,2.3,16.5,1.6"/>
</g>
</svg>
