<svg style="display: none;"><symbol viewBox="0 0 28.4 21" id="shape-icon-blockquote"><title>icon-blockquote</title>  <g id="icon-blockquote-XMLID_1_"> <g id="icon-blockquote-XMLID_3_"> <path id="icon-blockquote-XMLID_4_" d="M11.7,3.3c-3.7,1.8-5.6,4-5.6,6.4c1.6,0.2,2.9,0.8,4,1.9c1,1.1,1.5,2.4,1.5,3.9c0,1.5-0.5,2.9-1.5,3.9
			C9,20.5,7.8,21,6.2,21c-1.7,0-3.2-0.7-4.4-2.1c-1.2-1.4-1.8-3.1-1.8-5C0,8,3.3,3.3,9.9,0L11.7,3.3z M28.4,3.3
			c-3.7,1.8-5.6,4-5.6,6.4c1.6,0.2,2.9,0.8,3.9,1.9c1,1.1,1.5,2.4,1.5,3.9c0,1.5-0.5,2.9-1.5,3.9c-1,1.1-2.3,1.6-3.8,1.6
			c-1.7,0-3.2-0.7-4.4-2.1c-1.2-1.4-1.9-3.1-1.9-5C16.7,8,20,3.3,26.6,0L28.4,3.3z"/> </g> </g> </symbol><symbol viewBox="0 0 24 24.7" id="shape-icon-dislike"><title>icon-dislike</title>  <g id="icon-dislike-XMLID_1_"> <g id="icon-dislike-XMLID_17_"> <path id="icon-dislike-XMLID_18_" d="M23.3,7.9c0.1-0.3,0.2-0.6,0.2-1c0-0.7-0.1-1.7-1.2-2.7c0.1-0.5,0.1-1.2-0.4-2c-0.6-1-1.6-1.7-3.2-2
			c-1.1-0.2-2.4-0.3-4.1-0.1C11.2,0,7.9,0.4,7.7,0.4L6.5,0.6C6.2,0.3,5.8,0.2,5.3,0.2H2.1C1,0.2,0,1.2,0,2.3v8.4
			c0,1.2,1,2.1,2.1,2.1h3.1c0.4,0,0.7-0.1,1-0.3c0.2,0.5,0.5,1,1,1.5c0,0,0.1,0.1,0.1,0.1c1.6,1.2,3.5,5.7,4.2,7.6
			c-0.1,0.6-0.1,1.8,0.4,2.5c0.3,0.3,0.6,0.5,1,0.5c0.4,0,1.8-0.1,2.6-1.3c0.8-1.1,0.9-2.8,0.1-5c-0.6-1.8-0.7-2.7-0.6-3
			c0.3,0.1,0.6,0.1,0.8,0.2h0c0,0,1.2,0.3,2.5,0.3c1.9,0.1,3.3-0.2,4.1-1c1.1-1,1-2.3,0.7-3.2c0.3-0.4,0.6-1,0.7-1.8
			C24,9.2,23.8,8.6,23.3,7.9z M5.3,11.5H2.1c-0.4,0-0.8-0.3-0.8-0.8V2.4c0-0.4,0.3-0.8,0.8-0.8h3.1c0.4,0,0.8,0.3,0.8,0.8v8.4
			C6.1,11.2,5.7,11.5,5.3,11.5z M21.9,12c0,0,0.2,0.3,0.2,0.7c0.1,0.5-0.1,0.9-0.4,1.2c-1,0.9-3.8,0.7-5.4,0.3c0,0,0,0-0.1,0
			c-0.3-0.1-0.6-0.1-0.9-0.2c-0.3-0.1-0.8-0.1-1.1,0.2c-0.7,0.6-0.6,2,0.3,4.6c0.6,1.7,0.6,3,0.1,3.8c-0.4,0.6-1.2,0.7-1.5,0.7
			c-0.1-0.2-0.2-0.9-0.1-1.5c0-0.1,0-0.2,0-0.3c-0.1-0.3-2.4-6.5-4.7-8.3c-0.6-0.7-0.9-1.4-1-1.8c0.1-0.2,0.1-0.4,0.1-0.6V2.4
			c0-0.2,0-0.3,0-0.5l0.5-0.1h0c0,0,3.4-0.4,6.7-0.4c0,0,0,0,0.1,0c1.6-0.1,2.8-0.1,3.8,0.1c1.2,0.2,1.9,0.7,2.3,1.3
			c0.4,0.6,0.2,1.3,0.1,1.4c-0.1,0.3,0,0.6,0.2,0.8c1.5,1.1,0.8,2.5,0.7,2.6c-0.2,0.3-0.1,0.6,0.1,0.8c0.4,0.5,0.7,0.9,0.6,1.4
			c0,0.7-0.5,1.2-0.6,1.2C21.8,11.3,21.7,11.7,21.9,12z"/> </g> </g> </symbol><symbol viewBox="0 0 32.5 32.5" id="shape-icon-engranaje"><title>icon-engranaje</title>  <g id="icon-engranaje-XMLID_1_"> <g id="icon-engranaje-XMLID_17_"> <g id="icon-engranaje-XMLID_18_"> <path id="icon-engranaje-XMLID_22_" d="M30.9,12.9l-2.3-0.4c-0.2-0.8-0.5-1.5-0.9-2.2L29,8.4c0.6-0.8,0.5-1.9-0.2-2.6l-2-2
				c-0.4-0.4-0.9-0.6-1.4-0.6c-0.4,0-0.8,0.1-1.2,0.4l-1.9,1.3c-0.7-0.4-1.5-0.7-2.3-0.9l-0.4-2.3c-0.2-1-1-1.7-2-1.7h-2.9
				c-1,0-1.8,0.7-2,1.7L12.4,4c-0.8,0.2-1.5,0.6-2.2,0.9L8.3,3.6C8,3.3,7.6,3.2,7.2,3.2c-0.5,0-1,0.2-1.4,0.6l-2,2
				C3,6.5,2.9,7.6,3.5,8.4l1.4,1.9c-0.4,0.7-0.7,1.5-0.9,2.2l-2.3,0.4c-1,0.2-1.7,1-1.7,2v2.9c0,1,0.7,1.8,1.7,2L4,20.2
				c0.2,0.8,0.6,1.5,0.9,2.2l-1.3,1.9C3,25,3.1,26.1,3.8,26.8l2,2c0.4,0.4,0.9,0.6,1.4,0.6c0.4,0,0.8-0.1,1.2-0.4l1.9-1.4
				c0.7,0.4,1.4,0.7,2.1,0.9l0.4,2.3c0.2,1,1,1.7,2,1.7h2.9c1,0,1.8-0.7,2-1.7l0.4-2.3c0.8-0.2,1.5-0.5,2.2-0.9l1.9,1.3
				c0.3,0.2,0.7,0.4,1.2,0.4l0,0c0.5,0,1-0.2,1.4-0.6l2-2c0.7-0.7,0.8-1.8,0.2-2.6l-1.3-1.9c0.4-0.7,0.7-1.5,0.9-2.2l2.3-0.4
				c1-0.2,1.7-1,1.7-2v-2.9C32.6,13.9,31.9,13,30.9,12.9z M30.7,17.7c0,0.1-0.1,0.2-0.1,0.2l-2.9,0.5c-0.4,0.1-0.6,0.3-0.7,0.7
				c-0.3,1-0.7,2-1.2,2.8c-0.2,0.3-0.2,0.7,0,1l1.7,2.4c0,0.1,0,0.2,0,0.2l-2,2c0,0-0.1,0.1-0.1,0.1c0,0-0.1,0-0.1,0l-2.4-1.7
				c-0.3-0.2-0.7-0.2-1,0C21,26.3,20,26.7,19,27c-0.4,0.1-0.6,0.4-0.7,0.7l-0.5,2.9c0,0.1-0.1,0.1-0.2,0.1h-2.9
				c-0.1,0-0.2-0.1-0.2-0.1l-0.5-2.9c-0.1-0.4-0.3-0.6-0.7-0.7c-1-0.3-1.9-0.6-2.8-1.1c-0.1-0.1-0.3-0.1-0.5-0.1
				c-0.2,0-0.4,0.1-0.5,0.2l-2.4,1.7c0,0-0.1,0-0.1,0c0,0-0.1,0-0.1-0.1l-2-2c-0.1-0.1-0.1-0.2,0-0.2L6.8,23c0.2-0.3,0.2-0.7,0-1
				c-0.5-0.9-0.9-1.8-1.2-2.8c-0.1-0.3-0.4-0.6-0.7-0.7L2,17.9c-0.1,0-0.1-0.1-0.1-0.2v-2.9c0-0.1,0.1-0.2,0.1-0.2l2.8-0.5
				c0.4-0.1,0.7-0.3,0.7-0.7c0.3-1,0.6-2,1.2-2.9c0.2-0.3,0.2-0.7,0-1L5,7.3c0-0.1,0-0.2,0-0.2l2-2C7.1,5,7.1,5,7.2,5
				c0,0,0.1,0,0.1,0l2.3,1.7c0.3,0.2,0.7,0.2,1,0c0.9-0.5,1.8-0.9,2.8-1.2c0.3-0.1,0.6-0.4,0.7-0.7L14.6,2c0-0.1,0.1-0.1,0.2-0.1
				h2.9c0.1,0,0.2,0.1,0.2,0.1l0.5,2.8c0.1,0.4,0.3,0.7,0.7,0.7c1,0.3,2,0.7,2.9,1.2c0.3,0.2,0.7,0.2,1,0L25.3,5c0,0,0.1,0,0.1,0
				c0,0,0.1,0,0.1,0.1l2,2c0.1,0.1,0.1,0.2,0,0.2l-1.7,2.4c-0.2,0.3-0.2,0.7,0,1c0.5,0.9,0.9,1.8,1.2,2.8c0.1,0.4,0.4,0.6,0.7,0.7
				l2.9,0.5c0.1,0,0.1,0.1,0.1,0.2L30.7,17.7L30.7,17.7z"/> <path id="icon-engranaje-XMLID_19_" fill="#F1F0EA" d="M16.3,9.2c-3.9,0-7,3.1-7,7s3.1,7,7,7s7-3.1,7-7S20.2,9.2,16.3,9.2z M16.3,21.5
				c-2.9,0-5.2-2.3-5.2-5.2s2.3-5.2,5.2-5.2s5.2,2.3,5.2,5.2S19.1,21.5,16.3,21.5z"/> </g> </g> </g> </symbol><symbol viewBox="0 0 13 24" id="shape-icon-facebook"><title>icon-facebook</title>  <g id="icon-facebook-XMLID_1_"> <path id="icon-facebook-XMLID_2_" d="M8.3,24H4.1c-0.3,0-0.6-0.3-0.6-0.6v-9.9H0.6C0.3,13.6,0,13.3,0,13V8.9
		c0-0.3,0.3-0.6,0.6-0.6h2.9V5.9C3.5,2.3,5.7,0,9.3,0c1.6,0,2.9,0.1,3.2,0.2c0.3,0,0.5,0.3,0.5,0.6v3.6c0,0.3-0.3,0.6-0.6,0.6
		l-2.1,0c-1.2,0-1.4,0.4-1.4,1.4v2h3.4c0.2,0,0.3,0.1,0.4,0.2c0.1,0.1,0.2,0.3,0.1,0.5l-0.5,4.1c0,0.3-0.3,0.5-0.6,0.5H8.9v9.9
		C8.9,23.7,8.6,24,8.3,24z M4.7,22.9h3V13c0-0.3,0.3-0.6,0.6-0.6h3l0.4-2.9H8.3C8,9.5,7.7,9.3,7.7,8.9V6.3c0-1.1,0.3-2.6,2.6-2.6
		l1.6,0V1.3c-0.6-0.1-1.5-0.1-2.6-0.1c-2.9,0-4.6,1.8-4.6,4.8v3c0,0.3-0.3,0.6-0.6,0.6H1.1v2.9h2.9c0.3,0,0.6,0.3,0.6,0.6L4.7,22.9
		L4.7,22.9z"/> </g> </symbol><symbol viewBox="0 0 28.6 25.7" id="shape-icon-fullscreen"><title>icon-fullscreen</title>  <g id="icon-fullscreen-XMLID_19_"> <g id="icon-fullscreen-XMLID_35_"> <g id="icon-fullscreen-XMLID_36_"> <path id="icon-fullscreen-XMLID_37_" d="M25.1,0H3.5C1.6,0,0,1.6,0,3.5v13.7c0,1.9,1.6,3.5,3.5,3.5h10v3.4h-5c-0.4,0-0.8,0.4-0.8,0.8
				c0,0.4,0.4,0.8,0.8,0.8h11.5c0.4,0,0.8-0.4,0.8-0.8c0-0.4-0.4-0.8-0.8-0.8h-5v-3.4h10c1.9,0,3.5-1.6,3.5-3.5V3.5
				C28.6,1.6,27,0,25.1,0z M3.5,1.6h21.5c1.1,0,1.9,0.9,1.9,1.9v11.4H1.6V3.5C1.6,2.5,2.5,1.6,3.5,1.6z M25.1,19.1H3.5
				c-1.1,0-1.9-0.9-1.9-1.9v-0.6H27v0.6C27,18.2,26.1,19.1,25.1,19.1z"/> </g> </g> </g> <g id="icon-fullscreen-XMLID_10_"> <g id="icon-fullscreen-XMLID_17_"> <path id="icon-fullscreen-XMLID_18_" d="M9.9,13.4c-0.2,0-0.4-0.1-0.5-0.2c-0.3-0.3-0.3-0.8,0-1.1l8.7-8.7c0.3-0.3,0.8-0.3,1.1,0
			c0.3,0.3,0.3,0.8,0,1.1l-8.7,8.7C10.3,13.3,10.1,13.4,9.9,13.4z"/> </g> <g id="icon-fullscreen-XMLID_14_"> <g id="icon-fullscreen-XMLID_15_"> <polygon id="icon-fullscreen-XMLID_16_" points="15.5,4.2 18.4,4.2 18.4,7.1 19.6,5.8 19.6,2.9 16.7,2.9 			"/> </g> </g> <g id="icon-fullscreen-XMLID_11_"> <g id="icon-fullscreen-XMLID_12_"> <polygon id="icon-fullscreen-XMLID_13_" points="10.2,9.5 10.2,12.4 13.1,12.4 11.9,13.6 9,13.6 9,10.7 			"/> </g> </g> </g> <g id="icon-fullscreen-XMLID_1_"> <g id="icon-fullscreen-XMLID_8_"> <path id="icon-fullscreen-XMLID_9_" d="M18.6,13.4c-0.2,0-0.4-0.1-0.5-0.2L9.4,4.5c-0.3-0.3-0.3-0.8,0-1.1s0.8-0.3,1.1,0l8.7,8.7
			c0.3,0.3,0.3,0.8,0,1.1C19,13.3,18.8,13.4,18.6,13.4z"/> </g> <g id="icon-fullscreen-XMLID_5_"> <g id="icon-fullscreen-XMLID_6_"> <polygon id="icon-fullscreen-XMLID_7_" points="18.4,9.5 18.4,12.4 15.5,12.4 16.7,13.6 19.6,13.6 19.6,10.7 			"/> </g> </g> <g id="icon-fullscreen-XMLID_2_"> <g id="icon-fullscreen-XMLID_3_"> <polygon id="icon-fullscreen-XMLID_4_" points="13.1,4.2 10.2,4.2 10.2,7.1 9,5.8 9,2.9 11.9,2.9 			"/> </g> </g> </g> </symbol><symbol viewBox="0 0 24 18" id="shape-icon-mail"><title>icon-mail</title>  <g id="icon-mail-XMLID_1_"> <path id="icon-mail-XMLID_2_" d="M22.2,0H1.8C0.8,0,0,0.8,0,1.8v14.3c0,1,0.8,1.8,1.8,1.8h20.3c1,0,1.8-0.8,1.8-1.8V1.8
		C24,0.8,23.2,0,22.2,0z M21.9,1.4l-9.8,8.3L2.4,1.4H21.9z M22.6,16.1c0,0.3-0.2,0.5-0.5,0.5H1.8c-0.3,0-0.5-0.2-0.5-0.5V2.3
		l10.3,8.8c0,0,0,0,0,0c0,0,0,0,0,0c0,0,0,0,0,0c0,0,0,0,0,0c0,0,0,0,0.1,0c0,0,0,0,0,0c0,0,0,0,0.1,0l0,0c0,0,0,0,0.1,0l0,0
		c0,0,0,0,0.1,0h0c0,0,0,0,0.1,0l0,0l0,0c0,0,0,0,0.1,0c0,0,0,0,0,0c0,0,0,0,0.1,0c0,0,0,0,0,0c0,0,0,0,0,0l0,0c0,0,0,0,0.1,0l0,0
		c0,0,0,0,0.1,0c0,0,0,0,0,0c0,0,0,0,0,0c0,0,0,0,0,0c0,0,0,0,0,0l10.1-8.6V16.1z"/> </g> </symbol><symbol viewBox="0 0 10.4 19.7" id="shape-icon-next"><title>icon-next</title>  <g id="icon-next-XMLID_1_"> <g id="icon-next-XMLID_17_"> <path id="icon-next-XMLID_18_" d="M9.1,9.8l-8.9,8.9c-0.2,0.2-0.2,0.6,0,0.8c0.2,0.2,0.6,0.2,0.8,0l9.3-9.3
			c0.2-0.2,0.2-0.6,0-0.8L1,0.2C0.8,0.1,0.7,0,0.6,0C0.4,0,0.3,0.1,0.2,0.2c-0.2,0.2-0.2,0.6,0,0.8L9.1,9.8z"/> </g> </g> </symbol><symbol viewBox="0 0 25.1 25.2" id="shape-icon-phone"><title>icon-phone</title>  <g id="icon-phone-XMLID_1_"> <g id="icon-phone-XMLID_17_"> <g id="icon-phone-XMLID_18_"> <path id="icon-phone-XMLID_21_" d="M19.9,15.6c-0.5-0.5-1.1-0.8-1.8-0.8c-0.7,0-1.3,0.3-1.8,0.8l-1.7,1.7
				c-0.1-0.1-0.3-0.1-0.4-0.2c-0.2-0.1-0.4-0.2-0.5-0.3c-1.6-1-3-2.3-4.4-4c-0.7-0.8-1.1-1.5-1.4-2.3c0.4-0.4,0.8-0.8,1.2-1.2
				C9.2,9.2,9.4,9,9.5,8.9c1.1-1.1,1.1-2.6,0-3.7L8.1,3.7C7.9,3.6,7.7,3.4,7.6,3.2c-0.3-0.3-0.7-0.7-1-1C6.1,1.7,5.4,1.5,4.8,1.5
				S3.5,1.7,3,2.2c0,0,0,0,0,0L1.2,4.1C0.5,4.7,0.1,5.6,0,6.5c-0.1,1.6,0.3,3,0.7,3.9c0.9,2.3,2.1,4.5,4.1,6.8
				c2.3,2.8,5.1,5,8.3,6.5c1.2,0.6,2.9,1.3,4.7,1.4c0.1,0,0.2,0,0.3,0c1.2,0,2.3-0.4,3.1-1.3c0,0,0,0,0,0c0.3-0.3,0.6-0.6,0.9-1
				c0.2-0.2,0.5-0.4,0.7-0.7c0.5-0.5,0.8-1.2,0.8-1.8c0-0.7-0.3-1.3-0.8-1.8L19.9,15.6z M21.8,21.2C21.8,21.2,21.8,21.2,21.8,21.2
				c-0.2,0.2-0.4,0.4-0.6,0.6c-0.3,0.3-0.7,0.7-1,1.1c-0.5,0.6-1.2,0.8-2,0.8c-0.1,0-0.2,0-0.2,0c-1.6-0.1-3-0.7-4.1-1.2
				c-3-1.5-5.6-3.5-7.8-6.1c-1.8-2.2-3-4.2-3.8-6.4C1.6,8.7,1.4,7.6,1.5,6.7C1.5,6,1.7,5.5,2.2,5.1L4,3.3C4.3,3,4.5,2.9,4.8,2.9
				c0.3,0,0.6,0.2,0.8,0.4c0,0,0,0,0,0c0.3,0.3,0.6,0.6,1,1c0.2,0.2,0.3,0.3,0.5,0.5l1.4,1.4c0.6,0.6,0.6,1.1,0,1.6
				C8.4,8,8.2,8.1,8,8.3C7.6,8.8,7.2,9.2,6.7,9.6c0,0,0,0,0,0c-0.5,0.5-0.4,0.9-0.3,1.2c0,0,0,0,0,0c0.4,0.9,0.9,1.8,1.7,2.8l0,0
				c1.5,1.8,3,3.2,4.7,4.3c0.2,0.1,0.4,0.2,0.7,0.4c0.2,0.1,0.4,0.2,0.5,0.3c0,0,0,0,0.1,0c0.2,0.1,0.4,0.1,0.5,0.1
				c0.4,0,0.7-0.3,0.8-0.4l1.8-1.8c0.2-0.2,0.5-0.4,0.8-0.4c0.3,0,0.6,0.2,0.8,0.4c0,0,0,0,0,0l2.9,2.9
				C22.3,20.1,22.3,20.6,21.8,21.2z"/> <path id="icon-phone-XMLID_20_" d="M13.6,6c1.4,0.2,2.7,0.9,3.7,1.9c1,1,1.7,2.3,1.9,3.7c0.1,0.4,0.4,0.6,0.7,0.6
				c0,0,0.1,0,0.1,0c0.4-0.1,0.7-0.4,0.6-0.8c-0.3-1.7-1.1-3.2-2.3-4.4c-1.2-1.2-2.8-2-4.4-2.3c-0.4-0.1-0.8,0.2-0.8,0.6
				S13.2,5.9,13.6,6z"/> <path id="icon-phone-XMLID_19_" d="M25.1,11.1c-0.5-2.8-1.8-5.3-3.8-7.3S16.8,0.5,14,0c-0.4-0.1-0.8,0.2-0.8,0.6
				c-0.1,0.4,0.2,0.8,0.6,0.8c2.5,0.4,4.7,1.6,6.5,3.4c1.8,1.8,3,4.1,3.4,6.5c0.1,0.4,0.4,0.6,0.7,0.6c0,0,0.1,0,0.1,0
				C24.9,11.9,25.2,11.5,25.1,11.1z"/> </g> </g> </g> </symbol><symbol viewBox="0 0 10.6 17" id="shape-icon-place"><title>icon-place</title>  <g id="icon-place-XMLID_1_"> <g id="icon-place-XMLID_2_"> <path id="icon-place-XMLID_3_" d="M5.3,0C2.4,0,0,2.4,0,5.3C0,10.4,5.3,17,5.3,17s5.3-6.6,5.3-11.7C10.6,2.4,8.2,0,5.3,0z M5.3,8.2
			C3.7,8.2,2.4,7,2.4,5.4s1.3-2.9,2.9-2.9c1.6,0,2.9,1.3,2.9,2.9S6.9,8.2,5.3,8.2z"/> </g> </g> </symbol><symbol viewBox="0 0 10.4 19.7" id="shape-icon-prev"><title>icon-prev</title>  <g id="icon-prev-XMLID_1_"> <g id="icon-prev-XMLID_17_"> <path id="icon-prev-XMLID_18_" d="M1.3,9.8L10.2,1c0.2-0.2,0.2-0.6,0-0.8s-0.6-0.2-0.8,0L0.2,9.5c-0.2,0.2-0.2,0.6,0,0.8
			l9.3,9.3c0.1,0.1,0.3,0.2,0.4,0.2s0.3-0.1,0.4-0.2c0.2-0.2,0.2-0.6,0-0.8L1.3,9.8z"/> </g> </g> </symbol><symbol viewBox="0 0 25.3 25.3" id="shape-icon-reloj"><title>icon-reloj</title>  <g id="icon-reloj-XMLID_1_"> <circle id="icon-reloj-XMLID_3_" fill="none" stroke-width="1.7" stroke-miterlimit="10" cx="12.7" cy="12.7" r="11.8"/> <polyline id="icon-reloj-XMLID_2_" fill="none" stroke-width="1.7" stroke-linecap="round" stroke-miterlimit="10" points="
		12.7,5.1 12.7,12.9 17.3,17.6 	"/> </g> </symbol><symbol viewBox="0 0 14.4 14.4" id="shape-icon-sq-facebook"><title>icon-sq-facebook</title>  <g id="icon-sq-facebook-XMLID_1_"> <path id="icon-sq-facebook-XMLID_2_" d="M14.4,2.4C14.4,1.1,13.3,0,12,0H2.4C1.1,0,0,1.1,0,2.4V12c0,1.3,1.1,2.4,2.4,2.4h4.8V9H5.5V6.6h1.8V5.6
		c0-1.6,1.2-3.1,2.7-3.1h1.9V5H9.9C9.7,5,9.5,5.2,9.5,5.6v1h2.4V9H9.5v5.5H12c1.3,0,2.4-1.1,2.4-2.4V2.4z"/> </g> </symbol><symbol viewBox="0 0 14.4 14.4" id="shape-icon-sq-instagram"><title>icon-sq-instagram</title>  <g id="icon-sq-instagram-post-instagram_1_"> <path id="icon-sq-instagram-XMLID_1_" d="M13,0H1.4C0.6,0,0,0.6,0,1.4V13c0,0.8,0.6,1.4,1.4,1.4H13c0.8,0,1.4-0.6,1.4-1.4V1.4C14.4,0.6,13.8,0,13,0z
		 M7.2,4.3c1.6,0,2.9,1.3,2.9,2.9s-1.3,2.9-2.9,2.9S4.3,8.8,4.3,7.2S5.6,4.3,7.2,4.3z M1.8,13c-0.2,0-0.4-0.1-0.4-0.4V6.5H3
		C2.9,6.7,2.9,7,2.9,7.2c0,2.4,1.9,4.3,4.3,4.3s4.3-1.9,4.3-4.3c0-0.2,0-0.5-0.1-0.7H13v6.1c0,0.2-0.1,0.4-0.4,0.4H1.8z M13,3.2
		c0,0.2-0.1,0.4-0.4,0.4h-1.4c-0.2,0-0.4-0.1-0.4-0.4V1.8c0-0.2,0.1-0.4,0.4-0.4h1.4c0.2,0,0.4,0.1,0.4,0.4V3.2z"/> </g> </symbol><symbol viewBox="0 0 14.4 14.4" id="shape-icon-sq-linkedin"><title>icon-sq-linkedin</title>  <path id="icon-sq-linkedin-XMLID_1_" d="M13.6,0H0.8C0.3,0,0,0.3,0,0.8v12.9c0,0.4,0.3,0.8,0.8,0.8h12.9c0.4,0,0.8-0.3,0.8-0.8V0.8
	C14.4,0.3,14.1,0,13.6,0z M4,12.9H1.7V5.3H4L4,12.9L4,12.9z M2.9,4.2c-0.8,0-1.4-0.6-1.4-1.4c0-0.8,0.6-1.4,1.4-1.4
	c0.8,0,1.4,0.6,1.4,1.4C4.2,3.6,3.6,4.2,2.9,4.2z M12.9,12.9h-2.4V9.2c0-0.9,0-2-1.2-2c-1.2,0-1.4,1-1.4,2v3.8H5.5V5.3h2.3v1h0
	c0.3-0.6,1.1-1.2,2.2-1.2c2.4,0,2.8,1.6,2.8,3.6L12.9,12.9L12.9,12.9z"/> </symbol><symbol viewBox="0 0 16.5 13.4" id="shape-icon-sq-twitter"><title>icon-sq-twitter</title>  <g id="icon-sq-twitter-XMLID_1_"> <path id="icon-sq-twitter-XMLID_2_" d="M16.5,1.6c-0.6,0.3-1.3,0.5-1.9,0.5c0.7-0.4,1.2-1.1,1.5-1.9c-0.7,0.4-1.4,0.7-2.2,0.8
		C13.3,0.4,12.4,0,11.4,0C9.6,0,8.1,1.5,8.1,3.4c0,0.3,0,0.5,0.1,0.8C5.3,4,2.8,2.7,1.2,0.6C0.9,1.1,0.7,1.7,0.7,2.3
		c0,1.2,0.6,2.2,1.5,2.8C1.6,5.1,1.1,5,0.7,4.7v0c0,1.6,1.2,3,2.7,3.3C3.1,8.2,2.8,8.2,2.5,8.2c-0.2,0-0.4,0-0.6-0.1
		c0.4,1.3,1.7,2.3,3.2,2.4C3.9,11.4,2.4,12,0.8,12c-0.3,0-0.5,0-0.8,0c1.5,1,3.3,1.5,5.2,1.5c6.2,0,9.7-5.2,9.7-9.6l0-0.4
		C15.5,2.9,16.1,2.3,16.5,1.6"/> </g> </symbol><symbol viewBox="0 0 24 19.6" id="shape-icon-twitter"><title>icon-twitter</title>  <g id="icon-twitter-XMLID_1_"> <g id="icon-twitter-twitter_2_"> <g id="icon-twitter-XMLID_2_"> <path id="icon-twitter-XMLID_3_" d="M23.8,2.3c-0.2-0.1-0.4-0.1-0.6,0c-0.1,0.1-0.3,0.2-0.5,0.3c0.7-0.9,0.7-1.5,0.7-1.7
				c0-0.2-0.1-0.4-0.3-0.5c-0.2-0.1-0.4-0.1-0.5,0.1c-1,0.7-2,0.9-2.6,0.9c-1-0.9-2.2-1.4-3.5-1.4c-2.8,0-5.2,2.3-5.2,5.2
				c0,0.2,0,0.4,0,0.6C6.5,5.7,2.6,1.2,2.6,1.1C2.5,1,2.3,0.9,2.1,0.9C2,1,1.8,1.1,1.7,1.2C0.5,3.3,1,5.2,1.8,6.6
				c-0.2-0.1-0.3-0.1-0.5,0C1.2,6.7,1,6.9,1,7.1c0,2.2,1,3.5,2,4.2c-0.1,0-0.1,0.1-0.2,0.1c-0.1,0.1-0.2,0.3-0.1,0.5
				C3.4,14.2,5,15,6.1,15.4c-1.3,0.9-2.9,1.1-4.2,1.1c-0.8,0-1.3-0.1-1.3-0.1c-0.2,0-0.5,0.1-0.6,0.3c-0.1,0.2,0,0.5,0.2,0.7
				c2.5,1.9,5.5,2.3,7.5,2.3c1.6,0,2.8-0.2,2.8-0.3c10.6-2.5,11-12,11-13.8c2-1.8,2.3-2.5,2.4-2.7C24,2.7,24,2.4,23.8,2.3z M20.7,5
				c-0.1,0.1-0.2,0.3-0.2,0.4c0,0.1,0.6,10.4-10.2,12.9c0,0-1.1,0.2-2.6,0.2c-1.4,0-3.3-0.2-5.1-1c1.6-0.1,3.6-0.6,5.1-2.2
				c0.1-0.2,0.2-0.4,0.1-0.6c-0.1-0.2-0.3-0.3-0.5-0.3c-0.1,0-2.2,0-3.3-2c0.5,0,0.9-0.1,1.3-0.2c0.2-0.1,0.3-0.3,0.3-0.6
				c0-0.2-0.2-0.4-0.4-0.5c-0.1,0-2.6-0.6-3-3.2C2.6,8.2,3,8.3,3.5,8.2c0.2,0,0.4-0.2,0.4-0.4c0.1-0.2,0-0.4-0.2-0.6
				C3.7,7.2,1.3,5.1,2.3,2.4c1.4,1.4,5.1,4.7,9.6,4.4c0.2,0,0.3-0.1,0.4-0.2c0.1-0.1,0.1-0.3,0.1-0.5c-0.1-0.3-0.1-0.7-0.1-1
				c0-2.2,1.8-4.1,4.1-4.1c1.1,0,2.1,0.4,2.9,1.2c0.1,0.1,0.2,0.2,0.4,0.2l0.1,0c0.4,0,1,0,1.7-0.3c-0.2,0.2-0.5,0.5-0.9,0.8
				c-0.2,0.1-0.3,0.4-0.2,0.6C20.5,3.9,20.7,4,20.9,4c0.1,0,0.5,0,1-0.1C21.6,4.2,21.2,4.5,20.7,5z"/> </g> </g> </g> </symbol></svg>